<svg width="820" height="680" viewBox="0 0 820 680" fill="none" xmlns="http://www.w3.org/2000/svg">
  <rect width="820" height="680" rx="48" fill="#E6EBE6"/>
  <rect x="146" y="82" width="528" height="516" rx="36" fill="#FFFFFF"/>
  <rect x="210" y="142" width="238" height="34" rx="17" fill="#AF4B46"/>
  <rect x="210" y="222" width="372" height="22" rx="11" fill="#8CAFAF" fill-opacity="0.42"/>
  <rect x="210" y="302" width="312" height="22" rx="11" fill="#8CAFAF" fill-opacity="0.42"/>
  <rect x="210" y="382" width="380" height="22" rx="11" fill="#8CAFAF" fill-opacity="0.42"/>
  <rect x="210" y="462" width="286" height="22" rx="11" fill="#8CAFAF" fill-opacity="0.42"/>
  <path d="M164 228l28 28 50-66" stroke="#8CAFAF" stroke-width="16" stroke-linecap="round" stroke-linejoin="round"/>
  <path d="M164 308l28 28 50-66" stroke="#8CAFAF" stroke-width="16" stroke-linecap="round" stroke-linejoin="round"/>
  <path d="M164 388l28 28 50-66" stroke="#8CAFAF" stroke-width="16" stroke-linecap="round" stroke-linejoin="round"/>
  <path d="M164 468l28 28 50-66" stroke="#8CAFAF" stroke-width="16" stroke-linecap="round" stroke-linejoin="round"/>
  <circle cx="656" cy="130" r="70" fill="#AF4B46" fill-opacity="0.9"/>
  <path d="M628 130h56M656 102v56" stroke="white" stroke-width="12" stroke-linecap="round"/>
</svg>
