<svg width="820" height="680" viewBox="0 0 820 680" fill="none" xmlns="http://www.w3.org/2000/svg">
  <rect width="820" height="680" rx="48" fill="#F7F8F5"/>
  <rect x="58" y="70" width="704" height="540" rx="38" fill="#FFFFFF" stroke="#D7DEDA" stroke-width="3"/>
  <circle cx="226" cy="218" r="74" fill="#8CAFAF" fill-opacity="0.45"/>
  <path d="M164 406c18-78 58-118 122-118h26c64 0 104 40 122 118H164Z" fill="#8CAFAF"/>
  <path d="M200 202c8-60 50-92 98-92 52 0 94 34 98 92-54-30-122-30-196 0Z" fill="#26312E"/>
  <rect x="486" y="154" width="180" height="26" rx="13" fill="#AF4B46"/>
  <rect x="486" y="214" width="218" height="20" rx="10" fill="#8CAFAF"/>
  <rect x="486" y="258" width="160" height="20" rx="10" fill="#8CAFAF" fill-opacity="0.7"/>
  <rect x="118" y="468" width="584" height="34" rx="17" fill="#E6EBE6"/>
  <rect x="118" y="530" width="410" height="34" rx="17" fill="#E6EBE6"/>
  <circle cx="692" cy="126" r="42" fill="#AF4B46"/>
  <path d="M672 126l14 14 28-34" stroke="white" stroke-width="8" stroke-linecap="round" stroke-linejoin="round"/>
</svg>
